#!OML:ASF F:\VICON\USERDATA\INSTALL\rory3\rory3.ASF
:FULLY-SPECIFIED
:DEGREES
1324
root -2.70486 14.562 -16.8877 -369.779 -18.2451 362.058
lowerback 20.6027 4.00088 -3.2324
upperback 0.810215 4.55769 0.488355
thorax -10.9642 2.31311 1.02293
lowerneck -11.1333 -5.31701 -3.50551
upperneck 17.8543 -7.75024 5.45431
head 7.68633 -3.45092 1.58254
rclavicle 7.22334e-014 -2.64384e-014
rhumerus 35.7945 10.4363 -68.304
rradius 102.289
rwrist -78.1062
rhand -8.01315 15.085
rfingers 7.12502
rthumb 17.8962 -14.1115
lclavicle 7.22334e-014 -2.64384e-014
lhumerus -11.703 -0.26407 66.9636
lradius 23.1663
lwrist 2.12751
lhand -9.56921 14.675
lfingers 7.12502
lthumb 16.3985 44.0019
rfemur -18.6161 -29.4383 25.7204
rtibia 60.7912
rfoot -43.5978 -13.1969
rtoes 25.4235
lfemur -34.9727 5.70912 -6.39318
ltibia 41.0311
lfoot -0.630344 18.7028
ltoes 41.3256
1325
root -2.66846 14.5673 -16.8875 -369.806 -19.0734 362.429
lowerback 20.3045 4.05943 -3.51674
upperback 0.84709 4.57531 0.444057
thorax -10.7769 2.33451 1.14802
lowerneck -11.2465 -5.31966 -3.42746
upperneck 17.8861 -7.75339 5.37328
head 7.7107 -3.45229 1.5399
rclavicle -1.11816e-014 -2.18663e-015
rhumerus 35.025 11.5259 -68.9759
rradius 102.106
rwrist -80.0241
rhand -8.19236 14.0254
rfingers 7.12502
rthumb 17.7237 -15.1869
lclavicle -1.11816e-014 -2.18663e-015
lhumerus -11.2243 0.758707 66.3859
lradius 23.275
lwrist 3.41074
lhand -9.32806 14.9168
lfingers 7.12502
lthumb 16.6306 44.2243
rfemur -18.936 -28.8631 25.387
rtibia 61.0717
rfoot -43.3004 -13.1662
rtoes 24.8164
lfemur -34.6965 6.09414 -6.62362
ltibia 40.9837
lfoot -1.46351 18.8468
ltoes 41.8742
1326
root -2.63505 14.567 -16.8999 -369.839 -19.5358 362.693
lowerback 20.2502 4.0027 -3.73068
upperback 0.817104 4.44987 0.416935
thorax -10.7881 2.28604 1.27851
lowerneck -11.1126 -5.26789 -3.58794
upperneck 17.7858 -7.68428 5.54577
head 7.66392 -3.41936 1.63361
rclavicle 4.09186e-014 1.78906e-015
rhumerus 34.2163 12.6584 -69.5425
rradius 101.911
rwrist -81.6232
rhand -8.78449 13.4832
rfingers 7.12502
rthumb 17.1539 -15.7796
lclavicle 4.09186e-014 1.78906e-015
lhumerus -10.9105 2.52282 65.9429
lradius 23.4352
lwrist 3.99705
lhand -8.88493 14.8306
lfingers 7.12502
lthumb 17.0572 44.1018
rfemur -19.3188 -28.4699 25.2244
rtibia 61.3298
rfoot -43.0834 -13.5557
rtoes 24.035
lfemur -34.6803 6.28892 -6.82704
ltibia 41.1086
lfoot -2.06017 18.9133
ltoes 42.5577
1327
root -2.59475 14.5565 -16.9054 -369.868 -19.8627 362.759
lowerback 20.1023 3.7945 -3.60151
upperback 0.918409 4.20442 0.357484
thorax -10.5622 2.16027 1.22613
lowerneck -11.1026 -5.15274 -3.62359
upperneck 17.7591 -7.53747 5.64207
head 7.65128 -3.34428 1.68692
rclavicle 2.05742e-014 5.96354e-016
rhumerus 33.6234 13.7041 -70.1311
rradius 101.594
rwrist -82.8991
rhand -8.53647 13.276
rfingers 7.12502
rthumb 17.3926 -15.9659
lclavicle 2.05742e-014 5.96354e-016
lhumerus -10.5935 3.132 65.3774
lradius 24.2875
lwrist 6.14365
lhand -8.63911 16.5882
lfingers 7.12502
lthumb 17.2938 45.8388
rfemur -19.6072 -28.2532 25.1062
rtibia 61.6723
rfoot -43.0493 -13.2391
rtoes 24.4554
lfemur -34.7947 6.30742 -6.88526
ltibia 41.3826
lfoot -2.02303 19.0159
ltoes 41.6365
1328
root -2.5627 14.5542 -16.9128 -370.023 -20.8245 362.842
lowerback 20.1137 3.82593 -3.65553
upperback 0.999773 4.23272 0.36465
thorax -10.4836 2.17427 1.25857
lowerneck -11.3745 -5.12062 -3.31175
upperneck 18.006 -7.48063 5.22996
head 7.74954 -3.32515 1.49966
rclavicle -2.20465e-014 -2.38542e-015
rhumerus 33.0449 14.7899 -70.8254
rradius 101.141
rwrist -83.8113
rhand -8.46175 12.6573
rfingers 7.12502
rthumb 17.4645 -16.5782
lclavicle -2.20465e-014 -2.38542e-015
lhumerus -10.1876 5.3477 64.7528
lradius 24.4277
lwrist 6.22375
lhand -7.40157 16.4005
lfingers 7.12502
lthumb 18.4846 45.5422
rfemur -19.6505 -27.5416 25.0629
rtibia 61.8133
rfoot -42.8503 -12.9616
rtoes 24.5453
lfemur -34.4564 6.88351 -6.6995
ltibia 41.622
lfoot -2.82715 18.9768
ltoes 42.7777
1329
root -2.5312 14.5497 -16.9261 -370.203 -21.6149 362.898
lowerback 20.3417 3.84215 -3.78943
upperback 0.971019 4.21962 0.434889
thorax -10.6577 2.17676 1.40181
lowerneck -11.4235 -5.11053 -3.4486
upperneck 18.1037 -7.47387 5.35974
head 7.8008 -3.31736 1.56326
rclavicle 1.23309e-014 -1.61016e-014
rhumerus 32.1487 15.9049 -71.2715
rradius 100.858
rwrist -85.1788
rhand -8.1107 13.0195
rfingers 7.12502
rthumb 17.8023 -16.1856
lclavicle 1.23309e-014 -1.61016e-014
lhumerus -9.98145 6.55178 64.3664
lradius 24.796
lwrist 6.6048
lhand -7.4932 17.2156
lfingers 7.12502
lthumb 18.3964 46.3657
rfemur -19.7167 -27.0601 25.0654
rtibia 61.8962
rfoot -42.3291 -13.7061
rtoes 23.0886
lfemur -34.1625 7.37908 -6.55927
ltibia 41.7919
lfoot -2.78201 18.9848
ltoes 42.0143
1330
root -2.49252 14.5476 -16.9267 -370.22 -21.9868 362.921
lowerback 20.2228 3.58136 -3.75608
upperback 0.911805 3.8961 0.502321
thorax -10.6405 2.02642 1.55833
lowerneck -11.4978 -4.96023 -3.47653
upperneck 18.1476 -7.25406 5.31236
head 7.81706 -3.21779 1.57414
rclavicle 3.96948e-014 -5.36719e-015
rhumerus 31.2631 17.3574 -71.7193
rradius 100.495
rwrist -86.1898
rhand -8.76721 12.4191
rfingers 7.12502
rthumb 17.1705 -16.8422
lclavicle 3.96948e-014 -5.36719e-015
lhumerus -9.69773 8.11445 63.834
lradius 24.726
lwrist 7.33237
lhand -6.85315 17.8037
lfingers 7.12502
lthumb 19.012 46.8945
rfemur -19.8649 -26.9585 24.9414
rtibia 62.0535
rfoot -42.26 -12.9902
rtoes 23.8765
lfemur -34.0844 7.4382 -6.54051
ltibia 41.7878
lfoot -3.41612 19.0918
ltoes 42.7371
1331
root -2.45454 14.5567 -16.9304 -370.424 -22.4822 363.24
lowerback 20.3314 3.57211 -3.75905
upperback 0.801543 3.86815 0.416228
thorax -10.817 2.01319 1.46461
lowerneck -11.2414 -5.01889 -3.85178
upperneck 18.373 -7.35675 5.65444
head 7.87833 -3.2633 1.74155
rclavicle 1.4592e-014 8.94531e-015
rhumerus 30.1209 18.2051 -72.2531
rradius 100.459
rwrist -87.5085
rhand -9.46537 11.3134
rfingers 7.12502
rthumb 16.4984 -18.0051
lclavicle 1.4592e-014 8.94531e-015
lhumerus -9.49392 8.62236 63.6426
lradius 25.1757
lwrist 8.18268
lhand -7.2598 18.19
lfingers 7.12502
lthumb 18.6209 47.3188
rfemur -19.8551 -26.6975 24.546
rtibia 62.0537
rfoot -41.9956 -12.8485
rtoes 24.1595
lfemur -33.7106 6.98593 -6.68609
ltibia 41.7443
lfoot -4.69432 19.4004
ltoes 43.4221
1332
root -2.42716 14.5466 -16.9429 -370.563 -23.0772 363.313
lowerback 20.6021 3.41848 -4.20276
upperback 0.710216 3.56198 0.544431
thorax -11.0895 1.89928 1.93536
lowerneck -11.8338 -5.25008 -3.84093
upperneck 18.141 -7.6719 5.76042
head 7.9289 -3.39393 1.72592
rclavicle 2.79541e-015 3.97569e-015
rhumerus 29.353 19.6858 -72.7202
rradius 99.7688
rwrist -88.1766
rhand -9.10999 11.7554
rfingers 7.12502
rthumb 16.8406 -17.5344
lclavicle 2.79541e-015 3.97569e-015
lhumerus -9.58024 10.1792 63.008
lradius 25.6454
lwrist 8.46938
lhand -7.53021 16.7195
lfingers 7.12502
lthumb 18.3608 45.8729
rfemur -19.9557 -26.2048 24.5639
rtibia 62.1731
rfoot -41.7442 -13.3275
rtoes 22.957
lfemur -33.5947 7.49276 -6.6265
ltibia 42.0208
lfoot -4.72933 19.296
ltoes 43.0206
1333
root -2.39253 14.5451 -16.9502 -370.61 -23.8684 363.33
lowerback 20.8013 3.42733 -4.36027
upperback 0.682084 3.53593 0.637821
thorax -11.2475 1.89976 2.12711
lowerneck -10.1719 -5.00483 -4.05573
upperneck 17.6947 -7.28643 5.62566
head 7.46621 -3.2805 1.80079
rclavicle -6.38472e-014 1.98785e-015
rhumerus 28.6506 20.6814 -73.2853
rradius 99.2687
rwrist -89.0987
rhand -9.10026 11.2479
rfingers 7.12502
rthumb 16.8499 -18.0411
lclavicle -6.38472e-014 1.98785e-015
lhumerus -8.96925 10.9021 62.6423
lradius 25.8731
lwrist 9.57633
lhand -6.50857 19.201
lfingers 7.12502
lthumb 19.3434 48.259
rfemur -20.1605 -25.4316 24.7067
rtibia 62.2848
rfoot -41.6807 -13.259
rtoes 23.3651
lfemur -33.3577 7.81022 -6.44613
ltibia 42.0921
lfoot -5.34082 19.382
ltoes 43.5721
1334
root -2.35996 14.5466 -16.9642 -370.653 -24.2448 363.308
lowerback 21.0018 3.2423 -4.2746
upperback 0.654284 3.29596 0.594065
thorax -11.364 1.78245 2.09592
lowerneck -12.3893 -5.25323 -3.81759
upperneck 19.0407 -7.68625 5.54598
head 8.32001 -3.39513 1.63191
rclavicle -1.24178e-014 -1.07344e-014
rhumerus 27.5354 21.681 -73.6207
rradius 98.9779
rwrist -90.4914
rhand -9.71417 10.4475
rfingers 7.12502
rthumb 16.2589 -18.8908
lclavicle -1.24178e-014 -1.07344e-014
lhumerus -8.46113 12.2293 62.1867
lradius 26.0251
lwrist 9.62348
lhand -6.4303 19.3132
lfingers 7.12502
lthumb 19.4187 48.3635
rfemur -20.2239 -25.061 24.7463
rtibia 62.3112
rfoot -41.6619 -12.873
rtoes 24.356
lfemur -33.201 7.61225 -6.3028
ltibia 42.0674
lfoot -6.35871 19.5505
ltoes 44.8764
